# Made in Blockbench 5.0.4
mtllib techportal.mtl

o portal_frame_bot
v 10 2 2
v 10 3 2
v 3 3 2
v 3 2 2
v 3 2 1
v 3 3 1
v 10 3 1
v 10 2 1
v 4.000001 9 2
v 4 8 2
v 4.000001 8 1
v 4.000001 9 1
v 11 3 2
v 9 3 2
v 9 3 1
v 11 3 1
v 8 0 0
v 8 3.5 0
v 7 3.5 0
v 7 0 0
v 7 0 -1
v 7 3.5 -1
v 8 3.5 -1
v 8 0 -1
v 6 0 0
v 6 3.5 0
v 5 3.5 0
v 5 0 0
v 5 0 -1
v 5 3.5 -1
v 6 3.5 -1
v 6 0 -1
v 6 0 5
v 6 3.5 5
v 5 3.5 5
v 5 0 5
v 5 0 4
v 5 3.5 4
v 6 3.5 4
v 6 0 4
v 8 0 5
v 8 3.5 5
v 7 3.5 5
v 7 0 5
v 7 0 4
v 7 3.5 4
v 8 3.5 4
v 8 0 4
v 4 3 2
v 3 8 2
v 2 3 2
v 3.000001 8 1
v 4 3 1
v 8 3.484375 5
v 8 3.984375 5
v 5 3.984375 5
v 5 3.484375 5
v 5 3.484375 -1
v 5 3.984375 -1
v 8 3.984375 -1
v 8 3.484375 -1
v 8 0.03125 8.890625
v 8 0.53125 8.890625
v 5 0.53125 8.890625
v 5 0.03125 8.890625
v 5 0.03125 8.15625
v 5 0.53125 8.15625
v 8 0.53125 8.15625
v 8 0.03125 8.15625
v 8 0.036763 8.566416
v 8 0.405402 8.904211
v 5 0.405402 8.904211
v 5 0.036764 8.566416
v 5 3.604724 4.67267
v 5 3.973363 5.010466
v 8 3.973363 5.010466
v 8 3.604724 4.67267
v 3 0 3
v 3 3 3
v -1 3 3
v -1 0.000001 3
v -1 0.000001 0
v -1 3 0
v 3 3 0
v 3 0 0
v 14 -0.000001 3
v 14 3 3
v 10 3 3
v 10 0 3
v 10 0 0
v 10 3 0
v 14 3 0
v 14 -0.000001 0
v 10 1 3
v 9 1 3
v 9 0 3
v 9 0 0
v 9 1 0
v 10 1 0
v 4 0 3
v 4 1 3
v 3 1 3
v 3 1 0
v 4 1 0
v 4 0 0
v 9.000001000000001 9 2
v 9.000001000000001 9 1
v 9.000001000000001 8 1
v 9 8 2
v 10 8 2
v 10.000001000000001 8 1
v 3 7 2
v 3.0000008000000005 7 1
v 4.0000002 4 1
v 4.000000399999999 5 1
v 4.0000006 6 1
v 4.0000008000000005 7 1
v 4 4 2
v 4 5 2
v 4 6 2
v 4 7 2
v 10.5000002 3.9999999999999805 1
v 10.5 3.9999999999999805 2
v 10.000000400000001 4.999999999999965 1
v 10 4.999999999999965 2
v 10.000000600000002 5.999999999999957 1
v 10 5.999999999999957 2
v 10.0000008 6.999999999999959 1
v 10 6.999999999999959 2
v 9 3.9999999999999805 2
v 9 4.999999999999965 2
v 9 5.999999999999957 2
v 9 6.999999999999959 2
v 9.0000002 3.9999999999999805 1
v 9.000000400000001 4.999999999999965 1
v 9.000000600000002 5.999999999999957 1
v 9.0000008 6.999999999999959 1
v 2 3 1
v 2.5 4 2
v 2.5000002 4 1
v 3 5 2
v 3.0000004000000002 5 1
v 3 6 2
v 3.0000006000000004 6 1
vt 0.537109375 0.681640625
vt 0.537109375 0.712890625
vt 0.380859375 0.712890625
vt 0.380859375 0.681640625
vt 0.251953125 0.537109375
vt 0.251953125 0.568359375
vt 0.095703125 0.568359375
vt 0.095703125 0.537109375
vt 0.4765625 0.5234375
vt 0.4765625 0.6796875
vt 0.4453125 0.6796875
vt 0.4453125 0.5234375
vt 0.126953125 0.37890625
vt 0.126953125 0.53515625
vt 0.095703125 0.53515625
vt 0.095703125 0.37890625
vt 0.54296875 0.537109375
vt 0.54296875 0.568359375
vt 0.51171875 0.568359375
vt 0.51171875 0.537109375
vt 0.484375 0.33203125
vt 0.484375 0.36328125
vt 0.453125 0.36328125
vt 0.453125 0.33203125
vt 0.6328125 0.873046875
vt 0.6328125 0.904296875
vt 0.4765625 0.904296875
vt 0.4765625 0.873046875
vt 0.28515625 0.4921875
vt 0.28515625 0.5234375
vt 0.12890625 0.5234375
vt 0.12890625 0.4921875
vt 0.5078125 0.71484375
vt 0.5078125 0.87109375
vt 0.4765625 0.87109375
vt 0.4765625 0.71484375
vt 0.318359375 0.3671875
vt 0.318359375 0.5234375
vt 0.287109375 0.5234375
vt 0.287109375 0.3671875
vt 0.3203125 0.5234375
vt 0.3203125 0.4921875
vt 0.3515625 0.4921875
vt 0.3515625 0.5234375
vt 0.353515625 0.5234375
vt 0.353515625 0.4921875
vt 0.384765625 0.4921875
vt 0.384765625 0.5234375
vt 0.67578125 0.728515625
vt 0.67578125 0.759765625
vt 0.64453125 0.759765625
vt 0.64453125 0.728515625
vt 0.67578125 0.6953125
vt 0.67578125 0.7265625
vt 0.64453125 0.7265625
vt 0.64453125 0.6953125
vt 0.38671875 0.5234375
vt 0.38671875 0.4921875
vt 0.41796875 0.4921875
vt 0.41796875 0.5234375
vt 0 0.521484375
vt 0 0.490234375
vt 0.03125 0.490234375
vt 0.03125 0.521484375
vt 0.54296875 0.5703125
vt 0.54296875 0.6796875
vt 0.51171875 0.6796875
vt 0.51171875 0.5703125
vt 0.517578125 0.37890625
vt 0.517578125 0.48828125
vt 0.486328125 0.48828125
vt 0.486328125 0.37890625
vt 0.67578125 0.662109375
vt 0.67578125 0.693359375
vt 0.64453125 0.693359375
vt 0.64453125 0.662109375
vt 0.67578125 0.62890625
vt 0.67578125 0.66015625
vt 0.64453125 0.66015625
vt 0.64453125 0.62890625
vt 0.55078125 0.37890625
vt 0.55078125 0.48828125
vt 0.51953125 0.48828125
vt 0.51953125 0.37890625
vt 0.57421875 0.76171875
vt 0.57421875 0.87109375
vt 0.54296875 0.87109375
vt 0.54296875 0.76171875
vt 0.576171875 0.650390625
vt 0.576171875 0.759765625
vt 0.544921875 0.759765625
vt 0.544921875 0.650390625
vt 0.576171875 0.5390625
vt 0.576171875 0.6484375
vt 0.544921875 0.6484375
vt 0.544921875 0.5390625
vt 0.67578125 0.595703125
vt 0.67578125 0.626953125
vt 0.64453125 0.626953125
vt 0.64453125 0.595703125
vt 0.67578125 0.5625
vt 0.67578125 0.59375
vt 0.64453125 0.59375
vt 0.64453125 0.5625
vt 0.583984375 0.37890625
vt 0.583984375 0.48828125
vt 0.552734375 0.48828125
vt 0.552734375 0.37890625
vt 0.607421875 0.76171875
vt 0.607421875 0.87109375
vt 0.576171875 0.87109375
vt 0.576171875 0.76171875
vt 0.609375 0.650390625
vt 0.609375 0.759765625
vt 0.578125 0.759765625
vt 0.578125 0.650390625
vt 0.609375 0.5390625
vt 0.609375 0.6484375
vt 0.578125 0.6484375
vt 0.578125 0.5390625
vt 0.68359375 0.529296875
vt 0.68359375 0.560546875
vt 0.65234375 0.560546875
vt 0.65234375 0.529296875
vt 0.68359375 0.49609375
vt 0.68359375 0.52734375
vt 0.65234375 0.52734375
vt 0.65234375 0.49609375
vt 0.6171875 0.37890625
vt 0.6171875 0.48828125
vt 0.5859375 0.48828125
vt 0.5859375 0.37890625
vt 0.640625 0.76171875
vt 0.640625 0.87109375
vt 0.609375 0.87109375
vt 0.609375 0.76171875
vt 0.642578125 0.650390625
vt 0.642578125 0.759765625
vt 0.611328125 0.759765625
vt 0.611328125 0.650390625
vt 0.642578125 0.5390625
vt 0.642578125 0.6484375
vt 0.611328125 0.6484375
vt 0.611328125 0.5390625
vt 0.68359375 0.462890625
vt 0.68359375 0.494140625
vt 0.65234375 0.494140625
vt 0.65234375 0.462890625
vt 0.68359375 0.4296875
vt 0.68359375 0.4609375
vt 0.65234375 0.4609375
vt 0.65234375 0.4296875
vt 0.650390625 0.427734375
vt 0.650390625 0.537109375
vt 0.619140625 0.537109375
vt 0.619140625 0.427734375
vt 0.650390625 0.31640625
vt 0.650390625 0.42578125
vt 0.619140625 0.42578125
vt 0.619140625 0.31640625
vt 0.033203125 0.521484375
vt 0.033203125 0.490234375
vt 0.064453125 0.490234375
vt 0.064453125 0.521484375
vt 0.478515625 0.6796875
vt 0.478515625 0.6484375
vt 0.509765625 0.6484375
vt 0.509765625 0.6796875
vt 0.68359375 0.36328125
vt 0.68359375 0.39453125
vt 0.65234375 0.39453125
vt 0.65234375 0.36328125
vt 0.419921875 0.521484375
vt 0.419921875 0.490234375
vt 0.451171875 0.490234375
vt 0.451171875 0.521484375
vt 0.453125 0.521484375
vt 0.453125 0.490234375
vt 0.484375 0.490234375
vt 0.484375 0.521484375
vt 0.6015625 0.916015625
vt 0.6015625 0.931640625
vt 0.5078125 0.931640625
vt 0.5078125 0.916015625
vt 0.736328125 0.83203125
vt 0.736328125 0.84765625
vt 0.642578125 0.84765625
vt 0.642578125 0.83203125
vt 0.1875 0.90625
vt 0.1875 1
vt 0 1
vt 0 0.90625
vt 0.1875 0.810546875
vt 0.1875 0.904296875
vt 0 0.904296875
vt 0 0.810546875
vt 0.6953125 0.951171875
vt 0.6953125 0.966796875
vt 0.5078125 0.966796875
vt 0.5078125 0.951171875
vt 0.6953125 0.93359375
vt 0.6953125 0.94921875
vt 0.5078125 0.94921875
vt 0.5078125 0.93359375
vt 0.736328125 0.814453125
vt 0.736328125 0.830078125
vt 0.642578125 0.830078125
vt 0.642578125 0.814453125
vt 0.736328125 0.796875
vt 0.736328125 0.8125
vt 0.642578125 0.8125
vt 0.642578125 0.796875
vt 0.18359375 0.71484375
vt 0.18359375 0.80859375
vt 0.16015625 0.80859375
vt 0.16015625 0.71484375
vt 0.08984375 0.427734375
vt 0.08984375 0.521484375
vt 0.06640625 0.521484375
vt 0.06640625 0.427734375
vt 0.18359375 0.697265625
vt 0.18359375 0.712890625
vt 0.16015625 0.712890625
vt 0.16015625 0.697265625
vt 0.18359375 0.6796875
vt 0.18359375 0.6953125
vt 0.16015625 0.6953125
vt 0.16015625 0.6796875
vt 0.736328125 0.779296875
vt 0.736328125 0.794921875
vt 0.642578125 0.794921875
vt 0.642578125 0.779296875
vt 0.736328125 0.76171875
vt 0.736328125 0.77734375
vt 0.642578125 0.77734375
vt 0.642578125 0.76171875
vt 0.189453125 0.833984375
vt 0.283203125 0.833984375
vt 0.283203125 1
vt 0.189453125 1
vt 0.189453125 0.666015625
vt 0.283203125 0.666015625
vt 0.283203125 0.83203125
vt 0.189453125 0.83203125
vt 0.58203125 0.2109375
vt 0.59765625 0.2109375
vt 0.59765625 0.376953125
vt 0.58203125 0.376953125
vt 0.80859375 0.849609375
vt 0.80859375 0.865234375
vt 0.642578125 0.865234375
vt 0.642578125 0.849609375
vt 0.125 0.71484375
vt 0.125 0.80859375
vt 0 0.80859375
vt 0 0.71484375
vt 0.41015625 0.90625
vt 0.41015625 1
vt 0.28515625 1
vt 0.28515625 0.90625
vt 0.37890625 0.779296875
vt 0.37890625 0.904296875
vt 0.28515625 0.904296875
vt 0.28515625 0.779296875
vt 0.37890625 0.65234375
vt 0.37890625 0.77734375
vt 0.28515625 0.77734375
vt 0.28515625 0.65234375
vt 0.474609375 0.810546875
vt 0.474609375 0.904296875
vt 0.380859375 0.904296875
vt 0.380859375 0.810546875
vt 0.474609375 0.71484375
vt 0.474609375 0.80859375
vt 0.380859375 0.80859375
vt 0.380859375 0.71484375
vt 0.125 0.619140625
vt 0.125 0.712890625
vt 0 0.712890625
vt 0 0.619140625
vt 0.251953125 0.5703125
vt 0.251953125 0.6640625
vt 0.126953125 0.6640625
vt 0.126953125 0.5703125
vt 0.34765625 0.525390625
vt 0.34765625 0.650390625
vt 0.25390625 0.650390625
vt 0.25390625 0.525390625
vt 0.443359375 0.525390625
vt 0.443359375 0.650390625
vt 0.349609375 0.650390625
vt 0.349609375 0.525390625
vt 0.09375 0.5234375
vt 0.09375 0.6171875
vt 0 0.6171875
vt 0 0.5234375
vt 0.505859375 0.90625
vt 0.505859375 1
vt 0.412109375 1
vt 0.412109375 0.90625
vt 0.68359375 0.330078125
vt 0.68359375 0.361328125
vt 0.65234375 0.361328125
vt 0.65234375 0.330078125
vt 0.517578125 0.3125
vt 0.517578125 0.34375
vt 0.486328125 0.34375
vt 0.486328125 0.3125
vt 0.580078125 0.345703125
vt 0.580078125 0.376953125
vt 0.486328125 0.376953125
vt 0.486328125 0.345703125
vt 0.728515625 0.900390625
vt 0.728515625 0.931640625
vt 0.634765625 0.931640625
vt 0.634765625 0.900390625
vt 0.35546875 0.333984375
vt 0.35546875 0.365234375
vt 0.26171875 0.365234375
vt 0.26171875 0.333984375
vt 0.09375 0.33203125
vt 0.09375 0.36328125
vt 0 0.36328125
vt 0 0.33203125
vt 0.55078125 0.3125
vt 0.55078125 0.34375
vt 0.51953125 0.34375
vt 0.51953125 0.3125
vt 0.2890625 0.30078125
vt 0.2890625 0.33203125
vt 0.2578125 0.33203125
vt 0.2578125 0.30078125
vt 0.451171875 0.33203125
vt 0.451171875 0.36328125
vt 0.357421875 0.36328125
vt 0.357421875 0.33203125
vt 0.734375 0.96875
vt 0.734375 1
vt 0.640625 1
vt 0.640625 0.96875
vt 0.189453125 0.326171875
vt 0.189453125 0.357421875
vt 0.095703125 0.357421875
vt 0.095703125 0.326171875
vt 0.736328125 0.8671875
vt 0.736328125 0.8984375
vt 0.642578125 0.8984375
vt 0.642578125 0.8671875
vt 0.22265625 0.326171875
vt 0.22265625 0.357421875
vt 0.19140625 0.357421875
vt 0.19140625 0.326171875
vt 0.55078125 0.34375
vt 0.51953125 0.3125
vt 0.55078125 0.3125
vt 0.55078125 0.34375
vt 0.51953125 0.3125
vt 0.55078125 0.3125
vt 0.486328125 0.34375
vt 0.486328125 0.3125
vt 0.517578125 0.3125
vt 0.55078125 0.34375
vt 0.51953125 0.34375
vt 0.51953125 0.3125
vt 0.55078125 0.3125
vt 0.517578125 0.3125
vt 0.486328125 0.34375
vt 0.486328125 0.3125
vt 0.451171875 0.458984375
vt 0.451171875 0.490234375
vt 0.419921875 0.490234375
vt 0.419921875 0.458984375
vt 0.509765625 0.5234375
vt 0.509765625 0.5546875
vt 0.478515625 0.5546875
vt 0.478515625 0.5234375
vt 0.509765625 0.5546875
vt 0.509765625 0.5859375
vt 0.478515625 0.5859375
vt 0.478515625 0.5546875
vt 0.509765625 0.5859375
vt 0.509765625 0.6171875
vt 0.478515625 0.6171875
vt 0.478515625 0.5859375
vt 0.509765625 0.6171875
vt 0.509765625 0.6484375
vt 0.478515625 0.6484375
vt 0.478515625 0.6171875
vt 0.484375 0.365234375
vt 0.484375 0.396484375
vt 0.453125 0.396484375
vt 0.453125 0.365234375
vt 0.484375 0.396484375
vt 0.484375 0.427734375
vt 0.453125 0.427734375
vt 0.453125 0.396484375
vt 0.484375 0.427734375
vt 0.484375 0.458984375
vt 0.453125 0.458984375
vt 0.453125 0.427734375
vt 0.484375 0.458984375
vt 0.484375 0.490234375
vt 0.453125 0.490234375
vt 0.453125 0.458984375
vt 0.064453125 0.365234375
vt 0.064453125 0.396484375
vt 0.033203125 0.396484375
vt 0.033203125 0.365234375
vt 0.064453125 0.396484375
vt 0.064453125 0.427734375
vt 0.033203125 0.427734375
vt 0.033203125 0.396484375
vt 0.064453125 0.427734375
vt 0.064453125 0.458984375
vt 0.033203125 0.458984375
vt 0.033203125 0.427734375
vt 0.064453125 0.458984375
vt 0.064453125 0.490234375
vt 0.033203125 0.490234375
vt 0.033203125 0.458984375
vt 0.03125 0.365234375
vt 0.03125 0.396484375
vt 0 0.396484375
vt 0 0.365234375
vt 0.03125 0.396484375
vt 0.03125 0.427734375
vt 0 0.427734375
vt 0 0.396484375
vt 0.03125 0.427734375
vt 0.03125 0.458984375
vt 0 0.458984375
vt 0 0.427734375
vt 0.03125 0.458984375
vt 0.03125 0.490234375
vt 0 0.490234375
vt 0 0.458984375
vt 0.3515625 0.3671875
vt 0.3515625 0.3984375
vt 0.3203125 0.3984375
vt 0.3203125 0.3671875
vt 0.3515625 0.3984375
vt 0.3515625 0.4296875
vt 0.3203125 0.4296875
vt 0.3203125 0.3984375
vt 0.3515625 0.4296875
vt 0.3515625 0.4609375
vt 0.3203125 0.4609375
vt 0.3203125 0.4296875
vt 0.3515625 0.4609375
vt 0.3515625 0.4921875
vt 0.3203125 0.4921875
vt 0.3203125 0.4609375
vt 0.41796875 0.3671875
vt 0.41796875 0.3984375
vt 0.38671875 0.3984375
vt 0.38671875 0.3671875
vt 0.41796875 0.3984375
vt 0.41796875 0.4296875
vt 0.38671875 0.4296875
vt 0.38671875 0.3984375
vt 0.41796875 0.4296875
vt 0.41796875 0.4609375
vt 0.38671875 0.4609375
vt 0.38671875 0.4296875
vt 0.41796875 0.4609375
vt 0.41796875 0.4921875
vt 0.38671875 0.4921875
vt 0.38671875 0.4609375
vt 0.384765625 0.3671875
vt 0.384765625 0.3984375
vt 0.353515625 0.3984375
vt 0.353515625 0.3671875
vt 0.384765625 0.3984375
vt 0.384765625 0.4296875
vt 0.353515625 0.4296875
vt 0.353515625 0.3984375
vt 0.384765625 0.4296875
vt 0.384765625 0.4609375
vt 0.353515625 0.4609375
vt 0.353515625 0.4296875
vt 0.384765625 0.4609375
vt 0.384765625 0.4921875
vt 0.353515625 0.4921875
vt 0.353515625 0.4609375
vt 0.451171875 0.427734375
vt 0.451171875 0.458984375
vt 0.419921875 0.458984375
vt 0.419921875 0.427734375
vt 0.451171875 0.365234375
vt 0.451171875 0.396484375
vt 0.419921875 0.396484375
vt 0.419921875 0.365234375
vt 0.451171875 0.396484375
vt 0.451171875 0.427734375
vt 0.419921875 0.427734375
vt 0.419921875 0.396484375
vn 0 0 1
vn 0 0 -1
vn 0 1 0
vn 0 -1 0
vn -1 0 0
vn 1 0 0
vn 0 0 1
vn 0 0 -1
vn 0 1 0
vn 0 -1 0
vn 0 0 1
vn 0 0 -1
vn 0 1 0
vn 0 -1 0
vn -0.99999999999966 2.000000005607865e-7 -8.000000004668218e-7
vn 0.99999999999968 0 8.000000004668378e-7
vn 0 0 1
vn 0 0 -1
vn 0 1 0
vn 0 -1 0
vn -1 0 0
vn 1 0 0
vn 0 0 1
vn 0 0 -1
vn 0 1 0
vn 0 -1 0
vn -1 0 0
vn 1 0 0
vn 0 0 1
vn 0 0 -1
vn 0 1 0
vn 0 -1 0
vn -1 0 0
vn 1 0 0
vn 0 0 1
vn 0 0 -1
vn 0 1 0
vn 0 -1 0
vn -1 0 0
vn 1 0 0
vn 0 0 1
vn 0 0 -1
vn 0 -1 0
vn -0.99999999999966 1.9999999967261622e-7 -8.000000004668217e-7
vn 0.99999999999968 0 8.000000004668377e-7
vn 0 0 1
vn 0 0 -1
vn 0 1 0
vn 0 -1 0
vn -1 0 0
vn 1 0 0
vn 0 0 1
vn 0 0 -1
vn 0 1 0
vn 0 -1 0
vn -1 0 0
vn 1 0 0
vn 0 -0.6755897644272948 0.7372777429171943
vn 0 0.675590851581653 -0.7372767467234926
vn 0 0.7372772356273265 0.6755903180372909
vn -2.4575913878849275e-7 -0.7372774163647409 -0.6755901207969757
vn -1 0 0
vn 1 0 0
vn 0 0 1
vn 0 0 -1
vn 0 1 0
vn -2.499999999999922e-7 -0.9999999999999688 0
vn -1 0 0
vn 1 0 0
vn 0 0 1
vn 0 0 -1
vn 0 1 0
vn -2.499999999999922e-7 -0.9999999999999688 0
vn -1 0 0
vn 1 0 0
vn 0 0 1
vn 0 0 -1
vn 0 1 0
vn 0 -1 0
vn -1 0 0
vn 1 0 0
vn 0 0 1
vn 0 0 -1
vn 0 1 0
vn 0 -1 0
vn -1 0 0
vn 1 0 0
vn -0.7071067811865476 0.7071067811865476 0
vn 0 0 1
vn 0 0 1
vn 0 0 -1
vn 0.7071071347400268 0.7071064276328914 0
vn 0 0 -1
vn -0.99999999999968 0 -8.000000004668377e-7
vn 0 0 -1
vn 0 0 -1
vn 0 0 -1
vn 0 0 -1
vn 0.99999999999996 -1.9999999967267623e-7 1.9999999967267623e-7
vn 0.9999999999999001 -1.9999999967266424e-7 3.999999993453285e-7
vn 0.9999999999998002 -2.0000000056082268e-7 5.999999999061112e-7
vn 0.99999999999966 -2.0000000056079464e-7 8.000000004668217e-7
vn 0 0 1
vn 0 0 1
vn 0 0 1
vn 0 0 1
vn 0.8944272625540679 0.44721345239158966 1.788854530124679e-7
vn 0.8944272625540257 0.44721345239156657 3.577709060249174e-7
vn 0.9999999999998002 -2.0000000056082426e-7 6.000000016824681e-7
vn 0.99999999999966 -1.9999999878443746e-7 8.000000004668217e-7
vn 0 0 1
vn 0 0 1
vn 0 0 1
vn 0 0 1
vn -0.99999999999998 0 -2.0000000056085865e-7
vn -0.9999999999999201 0 -4.000000011216933e-7
vn -0.9999999999998201 0 -6.0000000168248e-7
vn -0.99999999999968 0 -8.000000004668377e-7
vn 0 0 -1
vn 0 0 -1
vn 0 0 -1
vn 0 0 -1
vn -0.9999999999998201 0 -6.000000003502124e-7
vn -0.8944271909999016 0.4472135954999508 -1.7888543830442566e-7
vn -0.8944271909998587 0.44721359549992934 -3.577708766088341e-7
usemtl m_12a637d9-2cb3-42df-2d30-d518b9b8a696
f 1/1/1 2/2/1 3/3/1 4/4/1
f 5/5/2 6/6/2 7/7/2 8/8/2
f 3/9/3 2/10/3 7/11/3 6/12/3
f 1/13/4 4/14/4 5/15/4 8/16/4
f 4/17/5 3/18/5 6/19/5 5/20/5
f 8/21/6 7/22/6 2/23/6 1/24/6
f 109/25/7 106/26/7 9/27/7 10/28/7
f 11/29/8 12/30/8 107/31/8 108/32/8
f 9/33/9 106/34/9 107/35/9 12/36/9
f 109/37/10 10/38/10 11/39/10 108/40/10
f 109/41/11 133/42/11 129/43/11 110/44/11
f 111/45/12 128/46/12 137/47/12 108/48/12
f 109/49/13 110/50/13 111/51/13 108/52/13
f 13/53/14 14/54/14 15/55/14 16/56/14
f 108/57/15 137/58/15 133/59/15 109/60/15
f 110/61/16 129/62/16 128/63/16 111/64/16
f 17/65/17 18/66/17 19/67/17 20/68/17
f 21/69/18 22/70/18 23/71/18 24/72/18
f 19/73/19 18/74/19 23/75/19 22/76/19
f 17/77/20 20/78/20 21/79/20 24/80/20
f 20/81/21 19/82/21 22/83/21 21/84/21
f 24/85/22 23/86/22 18/87/22 17/88/22
f 25/89/23 26/90/23 27/91/23 28/92/23
f 29/93/24 30/94/24 31/95/24 32/96/24
f 27/97/25 26/98/25 31/99/25 30/100/25
f 25/101/26 28/102/26 29/103/26 32/104/26
f 28/105/27 27/106/27 30/107/27 29/108/27
f 32/109/28 31/110/28 26/111/28 25/112/28
f 33/113/29 34/114/29 35/115/29 36/116/29
f 37/117/30 38/118/30 39/119/30 40/120/30
f 35/121/31 34/122/31 39/123/31 38/124/31
f 33/125/32 36/126/32 37/127/32 40/128/32
f 36/129/33 35/130/33 38/131/33 37/132/33
f 40/133/34 39/134/34 34/135/34 33/136/34
f 41/137/35 42/138/35 43/139/35 44/140/35
f 45/141/36 46/142/36 47/143/36 48/144/36
f 43/145/37 42/146/37 47/147/37 46/148/37
f 41/149/38 44/150/38 45/151/38 48/152/38
f 44/153/39 43/154/39 46/155/39 45/156/39
f 48/157/40 47/158/40 42/159/40 41/160/40
f 50/161/41 112/162/41 121/163/41 10/164/41
f 11/165/42 117/166/42 113/167/42 52/168/42
f 49/169/43 51/170/43 138/171/43 53/172/43
f 52/173/44 113/174/44 112/175/44 50/176/44
f 10/177/45 121/178/45 117/179/45 11/180/45
f 54/181/46 55/182/46 56/183/46 57/184/46
f 58/185/47 59/186/47 60/187/47 61/188/47
f 56/189/48 55/190/48 60/191/48 59/192/48
f 54/193/49 57/194/49 58/195/49 61/196/49
f 57/197/50 56/198/50 59/199/50 58/200/50
f 61/201/51 60/202/51 55/203/51 54/204/51
f 62/205/52 63/206/52 64/207/52 65/208/52
f 66/209/53 67/210/53 68/211/53 69/212/53
f 64/213/54 63/214/54 68/215/54 67/216/54
f 62/217/55 65/218/55 66/219/55 69/220/55
f 65/221/56 64/222/56 67/223/56 66/224/56
f 69/225/57 68/226/57 63/227/57 62/228/57
f 70/229/58 71/230/58 72/231/58 73/232/58
f 74/233/59 75/234/59 76/235/59 77/236/59
f 72/237/60 71/238/60 76/239/60 75/240/60
f 70/241/61 73/242/61 74/243/61 77/244/61
f 73/245/62 72/246/62 75/247/62 74/248/62
f 77/249/63 76/250/63 71/251/63 70/252/63
f 78/253/64 79/254/64 80/255/64 81/256/64
f 82/257/65 83/258/65 84/259/65 85/260/65
f 80/261/66 79/262/66 84/263/66 83/264/66
f 78/265/67 81/266/67 82/267/67 85/268/67
f 81/269/68 80/270/68 83/271/68 82/272/68
f 85/273/69 84/274/69 79/275/69 78/276/69
f 86/277/70 87/278/70 88/279/70 89/280/70
f 90/281/71 91/282/71 92/283/71 93/284/71
f 88/285/72 87/286/72 92/287/72 91/288/72
f 86/289/73 89/290/73 90/291/73 93/292/73
f 89/293/74 88/294/74 91/295/74 90/296/74
f 93/297/75 92/298/75 87/299/75 86/300/75
f 89/301/76 94/302/76 95/303/76 96/304/76
f 97/305/77 98/306/77 99/307/77 90/308/77
f 95/309/78 94/310/78 99/311/78 98/312/78
f 89/313/79 96/314/79 97/315/79 90/316/79
f 96/317/80 95/318/80 98/319/80 97/320/80
f 90/321/81 99/322/81 94/323/81 89/324/81
f 100/325/82 101/326/82 102/327/82 78/328/82
f 85/329/83 103/330/83 104/331/83 105/332/83
f 102/333/84 101/334/84 104/335/84 103/336/84
f 100/337/85 78/338/85 85/339/85 105/340/85
f 78/341/86 102/342/86 103/343/86 85/344/86
f 105/345/87 104/346/87 101/347/87 100/348/87
f 9/349/88 12/350/88 52/351/88 50/352/88
f 9/353/89 50/354/89 10/355/89
f 106/356/90 109/357/90 110/358/90
f 107/359/91 111/360/91 108/361/91
f 107/362/92 106/363/92 110/364/92 111/365/92
f 52/366/93 12/367/93 11/368/93
f 143/369/94 112/370/94 113/371/94 144/372/94
f 138/373/95 140/374/95 114/375/95 53/376/95
f 140/377/96 142/378/96 115/379/96 114/380/96
f 142/381/97 144/382/97 116/383/97 115/384/97
f 144/385/98 113/386/98 117/387/98 116/388/98
f 53/389/99 114/390/99 118/391/99 49/392/99
f 114/393/100 115/394/100 119/395/100 118/396/100
f 115/397/101 116/398/101 120/399/101 119/400/101
f 116/401/102 117/402/102 121/403/102 120/404/102
f 49/405/103 118/406/103 139/407/103 51/408/103
f 118/409/104 119/410/104 141/411/104 139/412/104
f 119/413/105 120/414/105 143/415/105 141/416/105
f 120/417/106 121/418/106 112/419/106 143/420/106
f 16/421/107 122/422/107 123/423/107 13/424/107
f 122/425/108 124/426/108 125/427/108 123/428/108
f 124/429/109 126/430/109 127/431/109 125/432/109
f 126/433/110 128/434/110 129/435/110 127/436/110
f 13/437/111 123/438/111 130/439/111 14/440/111
f 123/441/112 125/442/112 131/443/112 130/444/112
f 125/445/113 127/446/113 132/447/113 131/448/113
f 127/449/114 129/450/114 133/451/114 132/452/114
f 14/453/115 130/454/115 134/455/115 15/456/115
f 130/457/116 131/458/116 135/459/116 134/460/116
f 131/461/117 132/462/117 136/463/117 135/464/117
f 132/465/118 133/466/118 137/467/118 136/468/118
f 15/469/119 134/470/119 122/471/119 16/472/119
f 134/473/120 135/474/120 124/475/120 122/476/120
f 135/477/121 136/478/121 126/479/121 124/480/121
f 136/481/122 137/482/122 128/483/122 126/484/122
f 141/485/123 143/486/123 144/487/123 142/488/123
f 51/489/124 139/490/124 140/491/124 138/492/124
f 139/493/125 141/494/125 142/495/125 140/496/125